<?xml version="1.0" encoding="utf-8"?>
<!-- Generator: Adobe Illustrator 16.0.3, SVG Export Plug-In . SVG Version: 6.00 Build 0)  -->
<!DOCTYPE svg PUBLIC "-//W3C//DTD SVG 1.1//EN" "http://www.w3.org/Graphics/SVG/1.1/DTD/svg11.dtd">
<svg version="1.1" id="Capa_1" xmlns="http://www.w3.org/2000/svg" xmlns:xlink="http://www.w3.org/1999/xlink" x="0px" y="0px"
	 width="124px" height="28px" viewBox="0 0 124 28" enable-background="new 0 0 124 28" xml:space="preserve">
<g>
	<path fill="#FFFFFF" stroke="#FFFFFF" stroke-width="2" stroke-miterlimit="10" d="M8.123,6.483h5.086
		c2.359,0,4.064,0.344,5.115,1.031S19.9,9.288,19.9,10.772c0,1-0.258,1.832-0.773,2.496s-1.258,1.082-2.227,1.254v0.117
		c1.203,0.227,2.088,0.674,2.654,1.342s0.85,1.572,0.85,2.713c0,1.539-0.537,2.744-1.611,3.615s-2.568,1.307-4.482,1.307H8.123
		V6.483z M10.923,13.562h2.695c1.172,0,2.027-0.186,2.566-0.557s0.809-1.002,0.809-1.893c0-0.805-0.291-1.387-0.873-1.746
		s-1.506-0.539-2.771-0.539h-2.426V13.562z M10.923,15.835v5.426H13.9c1.172,0,2.057-0.225,2.654-0.674s0.896-1.158,0.896-2.127
		c0-0.891-0.305-1.551-0.914-1.98s-1.535-0.645-2.777-0.645H10.923z"/>
	<path fill="#FFFFFF" stroke="#FFFFFF" stroke-width="2" stroke-miterlimit="10" d="M35.169,17.112c0,2.117-0.543,3.77-1.629,4.957
		s-2.598,1.781-4.535,1.781c-1.211,0-2.281-0.273-3.211-0.82s-1.645-1.332-2.145-2.355s-0.75-2.211-0.75-3.563
		c0-2.102,0.539-3.742,1.617-4.922s2.598-1.77,4.559-1.77c1.875,0,3.359,0.604,4.453,1.811S35.169,15.065,35.169,17.112z
		 M25.736,17.112c0,2.992,1.105,4.488,3.316,4.488c2.188,0,3.281-1.496,3.281-4.488c0-2.961-1.102-4.441-3.305-4.441
		c-1.156,0-1.994,0.383-2.514,1.148S25.736,15.683,25.736,17.112z"/>
	<path fill="#FFFFFF" stroke="#FFFFFF" stroke-width="2" stroke-miterlimit="10" d="M49.736,23.616H46.97v-7.969
		c0-1-0.201-1.746-0.604-2.238s-1.041-0.738-1.916-0.738c-1.164,0-2.016,0.344-2.555,1.031s-0.809,1.84-0.809,3.457v6.457h-2.754
		V10.655h2.156l0.387,1.699h0.141c0.391-0.617,0.945-1.094,1.664-1.43s1.516-0.504,2.391-0.504c3.109,0,4.664,1.582,4.664,4.746
		V23.616z"/>
	<path fill="#FFFFFF" stroke="#FFFFFF" stroke-width="2" stroke-miterlimit="10" d="M57.939,23.851
		c-1.617,0-2.879-0.586-3.785-1.758s-1.359-2.816-1.359-4.934c0-2.125,0.459-3.779,1.377-4.963s2.189-1.775,3.814-1.775
		c1.703,0,3,0.629,3.891,1.887h0.141c-0.133-0.93-0.199-1.664-0.199-2.203V5.382h2.766v18.234h-2.157l-0.48-1.699h-0.129
		C60.935,23.206,59.642,23.851,57.939,23.851z M58.677,21.624c1.133,0,1.957-0.318,2.473-0.955s0.781-1.67,0.797-3.1v-0.387
		c0-1.633-0.266-2.793-0.797-3.48s-1.363-1.031-2.496-1.031c-0.969,0-1.715,0.393-2.238,1.178s-0.785,1.904-0.785,3.357
		c0,1.438,0.254,2.533,0.762,3.287S57.662,21.624,58.677,21.624z"/>
	<path fill="#FFFFFF" stroke="#FFFFFF" stroke-width="2" stroke-miterlimit="10" d="M68.357,7.222c0-0.492,0.135-0.871,0.404-1.137
		s0.654-0.398,1.154-0.398c0.484,0,0.861,0.133,1.131,0.398s0.404,0.645,0.404,1.137c0,0.469-0.135,0.838-0.404,1.107
		S70.4,8.733,69.916,8.733c-0.5,0-0.885-0.135-1.154-0.404S68.357,7.69,68.357,7.222z M71.275,23.616h-2.754V10.655h2.754V23.616z"
		/>
	<path fill="#FFFFFF" stroke="#FFFFFF" stroke-width="2" stroke-miterlimit="10" d="M83.92,19.925c0,1.266-0.461,2.236-1.383,2.912
		s-2.242,1.014-3.961,1.014c-1.727,0-3.113-0.262-4.16-0.785v-2.379c1.523,0.703,2.941,1.055,4.254,1.055
		c1.695,0,2.543-0.512,2.543-1.535c0-0.328-0.094-0.602-0.281-0.82s-0.496-0.445-0.926-0.68s-1.027-0.5-1.793-0.797
		c-1.492-0.578-2.502-1.156-3.029-1.734s-0.791-1.328-0.791-2.25c0-1.109,0.447-1.971,1.342-2.584s2.111-0.92,3.65-0.92
		c1.523,0,2.965,0.309,4.324,0.926l-0.891,2.074c-1.398-0.578-2.574-0.867-3.527-0.867c-1.453,0-2.18,0.414-2.18,1.242
		c0,0.406,0.189,0.75,0.568,1.031s1.205,0.668,2.479,1.16c1.07,0.414,1.848,0.793,2.332,1.137s0.844,0.74,1.078,1.189
		S83.92,19.3,83.92,19.925z"/>
	<path fill="#FFFFFF" stroke="#FFFFFF" stroke-width="2" stroke-miterlimit="10" d="M100.619,6.483v11.086
		c0,1.266-0.271,2.373-0.814,3.322s-1.328,1.68-2.355,2.191s-2.256,0.768-3.686,0.768c-2.125,0-3.777-0.563-4.957-1.688
		s-1.77-2.672-1.77-4.641V6.483h2.813v10.84c0,1.414,0.328,2.457,0.984,3.129s1.664,1.008,3.023,1.008
		c2.641,0,3.961-1.387,3.961-4.16V6.483H100.619z"/>
	<path fill="#FFFFFF" stroke="#FFFFFF" stroke-width="2" stroke-miterlimit="10" d="M109.842,14.3l4.055-7.816h3.047l-5.707,10.488
		v6.645h-2.813v-6.551L102.74,6.483h3.047L109.842,14.3z"/>
</g>
</svg>
